General
Complete name                    : Backdraft.mkv
Format                           : Matroska
File size                        : 2.49 GiB
Duration                         : 2h 11mn
Overall bit rate                 : 2 714 Kbps


Video
ID                               : 1
Format                           : AVC
Duration                         : 2h 11mn
Bit rate                         : 1 508 Kbps
Width                            : 714 pixels
Height                           : 376 pixels
Display aspect ratio             : 2.024
Original display aspect ratio    : 2.026
Frame rate                       : 25.000 fps
Resolution                       : 8 bits
Colorimetry                      : 4:2:0
Scan type                        : Progressive
Bits/(Pixel*Frame)               : 0.225
Stream size                      : 1.39 GiB (56%)
Writing library                  : x264 core 79


Audio #1
ID                               : 2
Format                           : AC-3
Format/Info                      : Audio Coding 3
Codec ID                         : A_AC3
Duration                         : 2h 11mn
Bit rate mode                    : Constant
Bit rate                         : 384 Kbps
Channel(s)                       : 6 channels
Channel positions                : Front: L C R, Surround: L R, LFE
Sampling rate                    : 48.0 KHz
Stream size                      : 361 MiB (14%)
Language                         : English

Audio #2
ID                               : 3
Format                           : AC-3
Format/Info                      : Audio Coding 3
Format profile                   : Dolby Digital
Codec ID                         : A_AC3
Duration                         : 2h 11mn
Bit rate mode                    : Constant
Bit rate                         : 192 Kbps
Channel(s)                       : 2 channels
Channel positions                : L R
Sampling rate                    : 48.0 KHz
Stream size                      : 181 MiB (7%)
Language                         : German

Audio #3
ID                               : 4
Format                           : AC-3
Format/Info                      : Audio Coding 3
Format profile                   : Dolby Digital
Codec ID                         : A_AC3
Duration                         : 2h 11mn
Bit rate mode                    : Constant
Bit rate                         : 192 Kbps
Channel(s)                       : 2 channels
Channel positions                : L R
Sampling rate                    : 48.0 KHz
Stream size                      : 181 MiB (7%)
Language                         : Italian

Audio #4
ID                               : 5
Format                           : AC-3
Format/Info                      : Audio Coding 3
Format profile                   : Dolby Digital
Codec ID                         : A_AC3
Duration                         : 2h 11mn
Bit rate mode                    : Constant
Bit rate                         : 192 Kbps
Channel(s)                       : 2 channels
Channel positions                : L R
Sampling rate                    : 48.0 KHz
Stream size                      : 181 MiB (7%)
Language                         : French

Audio #5
ID                               : 6
Format                           : AC-3
Format/Info                      : Audio Coding 3
Format profile                   : Dolby Digital
Codec ID                         : A_AC3
Duration                         : 2h 11mn
Bit rate mode                    : Constant
Bit rate                         : 192 Kbps
Channel(s)                       : 2 channels
Channel positions                : L R
Sampling rate                    : 48.0 KHz
Stream size                      : 181 MiB (7%)
Language                         : Spanish

Text #1
Language                         : English

Text #2
Language                         : Portuguese

Text #3
Language                         : Danish

Text #4
Language                         : Finnish

Text #5
Language                         : Polish

Text #6
Language                         : Dutch

Text #7
Language                         : Swedish

Text #8
Language                         : Norwegian

Text #9
Language                         : Czech

Text #10
Language                         : ????xxxx????



